<!--?xml version="1.0" encoding="utf-8"?-->
<!-- Svg Vector Icons : http://www.onlinewebfonts.com/icon -->

<svg version="1.1" xmlns="http://www.w3.org/2000/svg" xmlns:xlink="http://www.w3.org/1999/xlink" x="0px" y="0px" viewBox="0 0 256 256" enable-background="new 0 0 256 256" xml:space="preserve">
<metadata> Svg Vector Icons : http://www.onlinewebfonts.com/icon </metadata>
<g><g><g><path fill="#ffffff" data-title="Layer 0" xs="0" d="M123.1,10.8c-3,1-8.2,6.3-9.1,9.4c-0.6,1.9-0.7,14.1-0.7,47.8v45.2H68c-33.7,0-45.9,0.2-47.8,0.7c-5.3,1.6-10.2,8.4-10.2,14s4.9,12.4,10.2,14c1.9,0.6,14.1,0.7,47.8,0.7h45.2v45.2c0,33.7,0.2,45.9,0.7,47.8c1.6,5.3,8.4,10.2,14,10.2c5.7,0,12.4-4.9,14-10.2c0.6-1.9,0.7-14.1,0.7-47.8v-45.2H188c33.7,0,45.9-0.2,47.8-0.7c3.4-1,8.5-6.1,9.5-9.5c1.7-5.8,0.5-10.4-3.9-14.7c-1.9-2-4-3.4-5.6-3.9c-1.9-0.6-14.1-0.7-47.8-0.7h-45.2V68c0-33.7-0.2-45.9-0.7-47.8c-1-3.4-6.1-8.5-9.5-9.5C129.5,9.8,126,9.8,123.1,10.8z"/></g></g></g>
</svg>