<!--?xml version="1.0" encoding="utf-8"?-->
<!-- Svg Vector Icons : http://www.onlinewebfonts.com/icon -->

<svg version="1.1" xmlns="http://www.w3.org/2000/svg" xmlns:xlink="http://www.w3.org/1999/xlink" x="0px" y="0px" viewBox="0 0 256 256" enable-background="new 0 0 256 256" xml:space="preserve">
<metadata> Svg Vector Icons : http://www.onlinewebfonts.com/icon </metadata>
<g><g><path fill="#ffffff" data-title="Layer 0" xs="0" d="M127.5,10C62.9,10,10,63.1,10,128s52.9,118,117.5,118c10.8,0,19.6-8.8,19.6-19.7c0-4.9-1.9-9.8-4.9-12.8c-2.9-3.9-4.9-7.9-4.9-12.8c0-10.8,8.8-19.6,19.6-19.6h23.5c36.2,0,65.6-29.5,65.6-65.9C245,57.2,192.2,10,127.5,10L127.5,10z M56,128c-10.8,0-19.6-8.8-19.6-19.7c0-10.8,8.8-19.7,19.6-19.7c10.8,0,19.6,8.9,19.6,19.7C75.6,119.2,66.8,128,56,128L56,128z M95.2,75.9c-10.8,0-19.6-8.9-19.6-19.7c0-10.8,8.8-19.7,19.6-19.7c10.8,0,19.6,8.9,19.6,19.7C114.8,67,106,75.9,95.2,75.9L95.2,75.9z M159.8,75.9c-10.8,0-19.6-8.9-19.6-19.7c0-10.8,8.8-19.7,19.6-19.7c10.8,0,19.6,8.9,19.6,19.7C179.4,67,170.6,75.9,159.8,75.9L159.8,75.9z M199,128c-10.8,0-19.6-8.8-19.6-19.7c0-10.8,8.8-19.7,19.6-19.7c10.8,0,19.6,8.9,19.6,19.7C218.6,119.2,209.8,128,199,128L199,128z"/></g></g>
</svg>