<!--?xml version="1.0" encoding="utf-8"?-->
<!-- Svg Vector Icons : http://www.onlinewebfonts.com/icon -->

<svg version="1.1" xmlns="http://www.w3.org/2000/svg" xmlns:xlink="http://www.w3.org/1999/xlink" x="0px" y="0px" viewBox="0 0 256 256" enable-background="new 0 0 256 256" xml:space="preserve">
<metadata> Svg Vector Icons : http://www.onlinewebfonts.com/icon </metadata>
<g><g><g><path fill="#ffffff" data-title="Layer 0" xs="0" d="M50.5,11c-6.9,2.1-11.9,6.5-15,13.1l-1.8,3.7V128v100.1l1.8,3.8c2.5,5.3,6.1,9,11.3,11.5l4.5,2.2l85.4,0.2l85.5,0.1v-4c0-4-0.1-4-1.8-4c-4.5-0.1-10.6-4.7-12.6-9.6c-1.3-3.2-1.3-8.6,0-11.9c2-4.9,8.1-9.5,12.6-9.6h1.8l-0.1-89.5l-0.2-89.5l-2.2-4.5c-2.6-5.2-6.2-8.8-11.5-11.3l-3.8-1.8l-62.6-0.2L79.3,10l0.1,98.2l0.2,98.3l62.2,0.2l62.1,0.1l-2.4,4.8c-2.3,4.5-2.5,5.3-2.5,10.7s0.2,6.3,2.5,10.7l2.4,4.8h-75.3c-71.9,0-75.5-0.1-78-1.3c-9.7-4.5-12.2-17.3-4.9-24.9c3.4-3.6,5.6-4.5,12.6-4.9l6.4-0.3l0.2-98.3L65.1,10l-5.9,0.1C56,10.1,52,10.5,50.5,11z"/></g></g></g>
</svg>