<!--?xml version="1.0" encoding="utf-8"?-->
<!-- Svg Vector Icons : http://www.onlinewebfonts.com/icon -->

<svg version="1.1" xmlns="http://www.w3.org/2000/svg" xmlns:xlink="http://www.w3.org/1999/xlink" x="0px" y="0px" viewBox="0 0 256 256" enable-background="new 0 0 256 256" xml:space="preserve">
<metadata> Svg Vector Icons : http://www.onlinewebfonts.com/icon </metadata>
<g><g><g><path fill="#ffffff" data-title="Layer 0" xs="0" d="M40.8,246c-8.5,0-15.7-3-21.7-9c-6-6-9-13.3-9-21.7V40.8c0-8.5,3-15.7,9-21.7c6-6,13.3-9,21.7-9h174.4c8.5,0,15.7,3,21.7,9s9,13.3,9,21.7v174.4c0,8.5-3,15.7-9,21.7c-6,6-13.3,9-21.7,9H40.8z M66.4,85.9c5.4,0,10-1.9,13.8-5.7c3.8-3.8,5.7-8.4,5.7-13.8c0-5.4-1.9-10-5.7-13.8c-3.8-3.8-8.4-5.7-13.8-5.7c-5.4,0-10,1.9-13.8,5.7c-3.8,3.8-5.7,8.4-5.7,13.8c0,5.4,1.9,10,5.7,13.8C56.4,84,61,85.9,66.4,85.9z M189.6,85.9c5.4,0,10-1.9,13.8-5.7c3.8-3.8,5.7-8.4,5.7-13.8c0-5.4-1.9-10-5.7-13.8c-3.8-3.8-8.4-5.7-13.8-5.7s-10,1.9-13.8,5.7c-3.8,3.8-5.7,8.4-5.7,13.8c0,5.4,1.9,10,5.7,13.8C179.6,84,184.2,85.9,189.6,85.9z M128,147.5c5.4,0,10-1.9,13.8-5.7c3.8-3.8,5.7-8.4,5.7-13.8s-1.9-10-5.7-13.8c-3.8-3.8-8.4-5.7-13.8-5.7s-10,1.9-13.8,5.7c-3.8,3.8-5.7,8.4-5.7,13.8s1.9,10,5.7,13.8C118,145.6,122.6,147.5,128,147.5z M66.4,209.1c5.4,0,10-1.9,13.8-5.7c3.8-3.8,5.7-8.4,5.7-13.8c0-5.4-1.9-10-5.7-13.8c-3.8-3.8-8.4-5.7-13.8-5.7c-5.4,0-10,1.9-13.8,5.7c-3.8,3.8-5.7,8.4-5.7,13.8c0,5.4,1.9,10,5.7,13.8C56.4,207.2,61,209.1,66.4,209.1z M189.6,209.1c5.4,0,10-1.9,13.8-5.7c3.8-3.8,5.7-8.4,5.7-13.8c0-2.7-0.5-5.2-1.5-7.6c-1-2.4-2.4-4.5-4.2-6.2c-1.7-1.7-3.8-3.1-6.2-4.2c-2.4-1-4.9-1.5-7.6-1.5c-5.4,0-10,1.9-13.8,5.7c-3.8,3.8-5.7,8.4-5.7,13.8s1.9,10,5.7,13.8C179.6,207.2,184.2,209.1,189.6,209.1z"/></g></g></g>
</svg>