<?xml version="1.0" encoding="utf-8"?>
<!-- Svg Vector Icons : http://www.onlinewebfonts.com/icon -->
<!DOCTYPE svg PUBLIC "-//W3C//DTD SVG 1.1//EN" "http://www.w3.org/Graphics/SVG/1.1/DTD/svg11.dtd">
<svg version="1.1" xmlns="http://www.w3.org/2000/svg" xmlns:xlink="http://www.w3.org/1999/xlink" x="0px" y="0px" viewBox="0 0 256 256" enable-background="new 0 0 256 256" xml:space="preserve">
<metadata> Svg Vector Icons : http://www.onlinewebfonts.com/icon </metadata>
<g><g><g><path fill="#000000" d="M15.8,89.6c-6.2,3.4-7.7,10.7-3.1,15.4c1.3,1.3,15.6,9.4,56.8,31.9l55.1,30.1h3.5h3.5l55.1-30.1c41.2-22.5,55.5-30.5,56.8-31.9c4.5-4.7,3-12.3-3-15.4c-1.4-0.7-2.5-0.9-4.7-0.7c-2.8,0.2-4.4,1-55.1,28.7c-30.2,16.5-52.6,28.4-53,28.3c-0.4-0.1-24.1-12.9-52.6-28.5L23.1,89.2l-3-0.1C18,89,16.7,89.1,15.8,89.6z"/></g></g></g>
</svg>