<?xml version="1.0" encoding="utf-8"?>
<!-- Svg Vector Icons : http://www.onlinewebfonts.com/icon -->
<!DOCTYPE svg PUBLIC "-//W3C//DTD SVG 1.1//EN" "http://www.w3.org/Graphics/SVG/1.1/DTD/svg11.dtd">
<svg version="1.1" xmlns="http://www.w3.org/2000/svg" xmlns:xlink="http://www.w3.org/1999/xlink" x="0px" y="0px" viewBox="0 0 256 256" enable-background="new 0 0 256 256" xml:space="preserve">
<metadata> Svg Vector Icons : http://www.onlinewebfonts.com/icon </metadata>
<g><g><g><path fill="#000000" d="M117.5,10.4c-34.3,4.3-63.4,24.9-78.2,55.5c-11.2,23.1-12.9,49.7-4.9,74.3c3.7,11.3,11.3,25.4,18.3,34.1c3.9,4.8,68.8,69.8,70.8,70.9c2.2,1.1,7,1.1,9.2,0c3-1.6,69.3-68.6,73.4-74.2c14.3-19.5,21.5-42.7,20.6-65.9c-0.6-14.5-3.8-27.1-10.5-40.4c-14-28-40.2-47.6-71.5-53.3C138.2,10.1,123.4,9.6,117.5,10.4z M141,71.3c11.9,4.5,20.4,12.9,24.8,24.8c1.2,3.2,1.6,5.8,1.9,11.1c0.3,8.3-0.6,12.7-4.3,20.1c-10.1,20.6-35.9,28.1-56.2,16.3c-4.4-2.5-12.1-10.6-14.5-15c-5.5-10.5-6.4-21.3-2.6-32.7c3.9-11.9,15.4-22.4,28-25.6C123.9,68.8,135.6,69.3,141,71.3z"/></g></g></g>
</svg>