<!--?xml version="1.0" encoding="utf-8"?-->
<!-- Svg Vector Icons : http://www.onlinewebfonts.com/icon -->

<svg version="1.1" xmlns="http://www.w3.org/2000/svg" xmlns:xlink="http://www.w3.org/1999/xlink" x="0px" y="0px" viewBox="0 0 256 256" enable-background="new 0 0 256 256" xml:space="preserve">
<metadata> Svg Vector Icons : http://www.onlinewebfonts.com/icon </metadata>
<g><g><g><path fill="#d63335" data-title="Layer 0" xs="0" d="M70.6,21.4C54.6,23,41.9,29,30.4,40.5c-3.1,3.2-6.4,7-7.8,9.2c-14.2,21.8-16.6,50.8-6.4,78.5c4.7,12.7,13.8,27.8,24.9,41c18.2,21.6,50.4,46.6,81.6,63.1l5.2,2.7l3.5-1.8c42.9-22.5,80.6-55.3,99.4-86.5c9.4-15.7,13.8-28.6,15-44.8c1.2-15.5-2.8-35.1-9.6-47.6c-3.5-6.3-11-14.5-18.4-20.1c-4.2-3.2-13.3-7.9-18.2-9.5c-19.6-6.3-43.4-3.4-67.6,8.2l-4.3,2.1l-4.1-2.1C106.4,24.3,86,19.8,70.6,21.4z"/></g></g></g>
</svg>