<!--?xml version="1.0" encoding="utf-8"?-->
<!-- Svg Vector Icons : http://www.onlinewebfonts.com/icon -->

<svg version="1.1" xmlns="http://www.w3.org/2000/svg" xmlns:xlink="http://www.w3.org/1999/xlink" x="0px" y="0px" viewBox="0 0 256 256" enable-background="new 0 0 256 256" xml:space="preserve">
<metadata> Svg Vector Icons : http://www.onlinewebfonts.com/icon </metadata>
<g><g><path fill="#5f5f5f" data-title="Layer 0" xs="0" d="M208.7,206.1c23-21.5,37.3-52.2,37.3-86.2C246,54.7,193.2,1.8,128,1.8C62.8,1.8,10,54.7,10,119.9C10,185.1,62.8,238,128,238c24.8,0,47.8-7.6,66.8-20.7l35.5,35.5c1.7,1.8,4.6,1.9,6.6,0.4l7-5.5c1.9-1.5,2.1-4.2,0.5-5.9L208.7,206.1L208.7,206.1z M28.2,119.9C28.2,64.7,72.9,20,128,20c55.1,0,99.8,44.7,99.8,99.9c0,29.5-12.7,56-33,74.2c-1.1,0-2.3,0.3-3.2,1l-7,5.5c-0.9,0.7-1.4,1.6-1.5,2.6c-15.8,10.5-34.7,16.6-55.1,16.6C72.9,219.8,28.2,175.1,28.2,119.9L28.2,119.9z"/></g></g>
</svg>