<!--?xml version="1.0" encoding="utf-8"?-->
<!-- Svg Vector Icons : http://www.onlinewebfonts.com/icon -->

<svg version="1.1" xmlns="http://www.w3.org/2000/svg" xmlns:xlink="http://www.w3.org/1999/xlink" x="0px" y="0px" viewBox="0 0 256 256" enable-background="new 0 0 256 256" xml:space="preserve">
<metadata> Svg Vector Icons : http://www.onlinewebfonts.com/icon </metadata>
<g><g><g><path fill="#5f5f5f" data-title="Layer 0" xs="0" d="M179.3,27.9c-7.4,1.8-13.9,7.8-16.1,14.8l-0.8,2.5h-76h-76v4.6v4.6h76.1h76.1l0.3,1.2c0.5,2,2.7,6.2,4.4,8.3c4.7,5.9,13,9.1,20.6,8c3.6-0.6,8.7-2.9,11.6-5.4c2.5-2.2,5.3-6.4,6.4-9.6l0.8-2.5h19.7H246v-4.6v-4.6h-19.8c-19.1,0-19.8,0-19.8-0.9c0-0.5-0.8-2.5-1.8-4.6c-2.1-4.1-5.9-8.1-9.7-10C190.2,27.5,184.2,26.7,179.3,27.9z M188.8,37c6.6,2,10.6,9.8,8.5,16.8c-1,3.6-4.8,7.5-8.5,8.8c-4.9,1.6-11,0-14.3-3.7c-6-6.9-3.8-17.3,4.4-21.2C181.5,36.4,185.8,36.1,188.8,37z"/><path fill="#5f5f5f" data-title="Layer 1" xs="1" d="M56.3,104.7c-5.1,1.1-9.2,3.4-12.5,7.1c-1.9,2-4.2,6.1-5,8.7c-0.2,0.8-1.3,0.8-14.3,0.8H10.5v4.6v4.6l13.9,0.1l13.9,0.1l0.8,2.5c2.9,9,10.1,15,19.6,15.9c10.2,1,20.8-6.5,23.3-16.5l0.6-2.2H164h81.5v-4.4v-4.4H164c-77.3,0-81.6,0-81.9-0.8c-0.1-0.4-1-2.3-1.8-4.1C76.1,108.1,65.7,102.8,56.3,104.7z M65,114.2c1.2,0.4,3,1.5,4.2,2.5c6.1,5.4,6.1,14.8,0,20.2c-2.8,2.4-5.9,3.5-9.9,3.2c-13.6-1-17.1-19.2-5-25.2C57.6,113.3,61.4,113,65,114.2z"/><path fill="#5f5f5f" data-title="Layer 2" xs="2" d="M125.5,184c-8.5,1.5-15.6,7.6-18,15.4l-0.6,1.8l-48.5,0.1L10,201.5v4.6v4.6h48.4h48.3l1,2.7c2.2,6,6.1,10.4,11.8,13c8.5,4,18,2.4,24.8-4c3.2-3.1,4.4-4.8,5.8-8.7l1-2.8l47.3-0.1l47.3-0.1v-4.6v-4.6h-47.4h-47.4l-0.3-1.4c-0.5-2.4-2.7-6.5-4.9-8.9C140.6,185.8,132.4,182.8,125.5,184z M134.8,194.1c2.5,1.3,4.9,3.7,6.2,6.2c0.9,1.6,1.1,2.7,1.1,5.9c0,3.4-0.2,4.2-1.2,6.3c-2.4,4.7-6.7,7.1-12.4,7.1c-7.2,0-12.9-5.7-12.9-13c0-6.4,3.1-10.9,9.1-13.1C127.1,192.5,132.3,192.8,134.8,194.1z"/></g></g></g>
</svg>