<!--?xml version="1.0" encoding="utf-8"?-->
<!-- Svg Vector Icons : http://www.onlinewebfonts.com/icon -->

<svg version="1.1" xmlns="http://www.w3.org/2000/svg" xmlns:xlink="http://www.w3.org/1999/xlink" x="0px" y="0px" viewBox="0 0 256 256" enable-background="new 0 0 256 256" xml:space="preserve">
<metadata> Svg Vector Icons : http://www.onlinewebfonts.com/icon </metadata>
<g><g><path fill="#ffffff" data-title="Layer 0" xs="0" d="M190.7,64.9c0,0-7.3-8.1-19.4-8.1c-4.4,0-1.5,0-10,0c-21.3,0-19.8,22-19.8,22h10.2c0,0-0.1-11.8,7.9-11.8c5.9,0,6.4,0,11.6,0c5.2,0,8.1,3.2,8.1,3.2l41.3,41.8h-91.4h-2.2H35.5l41.3-41.8c0,0,2.9-3.2,8.1-3.2s5.8,0,11.6,0c8,0,7.8,11.8,7.8,11.8h10.2c0,0,1.5-22-19.8-22c-8.5,0-5.6,0-10,0c-12.1,0-19.4,8.1-19.4,8.1L10,120.2V172c0,0,0.4,27.2,26.8,27.2c22,0,21.1-0.9,37.5-0.9c21.6,0,44.9-16.8,44.9-43.6h7.7h2.2h7.7c0,26.8,23.3,43.6,44.9,43.6c16.4,0,15.5,0.9,37.5,0.9c26.3,0,26.8-27.2,26.8-27.2v-51.8L190.7,64.9z M57.1,174.9H33.6l42.2-42.6h23.5L57.1,174.9z M188.9,174.9H164l42.2-42.6h24.9L188.9,174.9z"/></g></g>
</svg>