<!--?xml version="1.0" encoding="utf-8"?-->
<!-- Svg Vector Icons : http://www.onlinewebfonts.com/icon -->

<svg version="1.1" xmlns="http://www.w3.org/2000/svg" xmlns:xlink="http://www.w3.org/1999/xlink" x="0px" y="0px" viewBox="0 0 256 256" enable-background="new 0 0 256 256" xml:space="preserve">
<metadata> Svg Vector Icons : http://www.onlinewebfonts.com/icon </metadata>
<g><g><g><path fill="#ffffff" data-title="Layer 0" xs="0" d="M72.1,32.9c-1.4,0.5-3.6,1.4-4.8,2.1c-3.1,1.8-55,56-56.4,58.8c-1.2,2.6-1.3,5.3-0.2,7.6c0.4,0.9,7.5,8.7,15.7,17.3c16.3,17,16.8,17.4,20.3,16.4c1.6-0.5,2.9-1.8,9.6-9.5c7.8-9.1,9.4-10.4,11.3-9.5c0.5,0.3,1.1,0.9,1.3,1.4c0.3,0.6,0.5,17.6,0.5,50.6v49.8l1.1,2c0.6,1.4,1.7,2.4,2.9,3.1l1.8,1.1l53.8-0.1c53.6-0.1,53.8-0.1,55.1-1.1c0.7-0.5,1.7-1.5,2.2-2.2c1-1.2,1-1.7,1.2-52.5c0.1-28.2,0.4-51.7,0.6-52.1c0.2-0.5,0.8-0.9,1.3-1.1c2-0.6,3.5,0.7,10.3,9.8c3.7,4.9,7.4,9.4,8.3,9.9c1.6,1,3.2,1.1,5.3,0.4c1.8-0.6,31.2-32.1,32.2-34.5c0.9-2.1,0.6-5.6-0.6-7.5c-1.2-1.8-52-56-53.6-57.2c-0.7-0.6-2.7-1.5-4.3-2.2c-2.7-1.2-3.3-1.2-12.8-1.4c-6.4-0.1-10.5,0-11.6,0.3c-2.7,0.8-4,2.7-5.7,7.8c-0.8,2.5-2.4,6-3.4,7.6c-5.2,8.3-15.1,13.7-24.9,13.7c-6.6,0-14.4-2.9-19.3-7.2c-4.3-3.8-8-9.8-9.3-15.2c-0.8-3.2-2-5.1-4.2-6.2c-1.7-0.8-2.7-0.9-11.4-0.9C76.4,32.1,74.3,32.2,72.1,32.9z"/></g></g></g>
</svg>