<?xml version="1.0" encoding="utf-8"?>
<!-- Svg Vector Icons : http://www.onlinewebfonts.com/icon -->
<!DOCTYPE svg PUBLIC "-//W3C//DTD SVG 1.1//EN" "http://www.w3.org/Graphics/SVG/1.1/DTD/svg11.dtd">
<svg version="1.1" xmlns="http://www.w3.org/2000/svg" xmlns:xlink="http://www.w3.org/1999/xlink" x="0px" y="0px" viewBox="0 0 256 256" enable-background="new 0 0 256 256" xml:space="preserve">
<metadata> Svg Vector Icons : http://www.onlinewebfonts.com/icon </metadata>
<g><g><path fill="#000000" d="M246,128.5c-0.4,6.6-4.3,10.2-7.7,12.1c-2.7,1.5-4.9,1.9-5,1.9c-1.6,0.1-4.7,0-4.7,0h-12.4l-0.1,39.1l0,27.9c0,0,0,3.6-0.3,6.5c-2.4,28.7-26.9,29.7-26.9,29.7h-39.1c0,0,0.6-79.9,0-84c-0.6-4.1-4.9-4.6-4.9-4.6l-14.5,0c0,0-17.5-0.2-19.9,0c-4.6,0.3-4.9,5.8-4.9,5.8v82.7H84.9c0,0-11.4,0.6-18.6,0c-25.9-2.3-27.1-30.3-27.1-30.3v-72.6l-11.9,0c0,0-4.3,0.2-6.9-1c-23.5-10.6,0-32.7,0-32.7S86.1,36.5,107,18.6c20.9-17.9,39.1-2.1,39.1-2.1s88.3,91.5,93.2,96.4c0.8,0.8,5.8,6.6,6.3,11.3C245.8,125.7,246.1,126.5,246,128.5z"/></g></g>
</svg>