<?xml version="1.0" encoding="utf-8"?>
<!-- Svg Vector Icons : http://www.onlinewebfonts.com/icon -->
<!DOCTYPE svg PUBLIC "-//W3C//DTD SVG 1.1//EN" "http://www.w3.org/Graphics/SVG/1.1/DTD/svg11.dtd">
<svg version="1.1" xmlns="http://www.w3.org/2000/svg" xmlns:xlink="http://www.w3.org/1999/xlink" x="0px" y="0px" viewBox="0 0 256 256" enable-background="new 0 0 256 256" xml:space="preserve">
<metadata> Svg Vector Icons : http://www.onlinewebfonts.com/icon </metadata>
<g><g><path fill="#000000" d="M128,10C62.8,10,10,62.8,10,128c0,65.2,52.8,118,118,118c65.2,0,118-52.8,118-118C246,62.8,193.2,10,128,10z M101.6,75.4c7.1-7.1,16.4-10.9,26.4-10.9c10,0,19.3,3.9,26.4,10.9c7.1,7.1,10.9,16.4,10.9,26.4c0,9.9-3.9,19.3-10.9,26.4c-7.1,7.1-16.4,10.9-26.4,10.9c-9.9,0-19.3-3.9-26.4-10.9c-7.1-7.1-10.9-16.4-10.9-26.4C90.7,91.8,94.6,82.4,101.6,75.4z M128,232.1c-23.9,0-46.9-8.1-65.4-23.1c5-31.8,32.5-55.8,65.4-55.8s60.4,24,65.4,55.8C174.9,224,151.9,232.1,128,232.1z"/></g></g>
</svg>