<?xml version="1.0" encoding="utf-8"?>
<!-- Svg Vector Icons : http://www.onlinewebfonts.com/icon -->
<!DOCTYPE svg PUBLIC "-//W3C//DTD SVG 1.1//EN" "http://www.w3.org/Graphics/SVG/1.1/DTD/svg11.dtd">
<svg version="1.1" xmlns="http://www.w3.org/2000/svg" xmlns:xlink="http://www.w3.org/1999/xlink" x="0px" y="0px" viewBox="0 0 256 256" enable-background="new 0 0 256 256" xml:space="preserve">
<metadata> Svg Vector Icons : http://www.onlinewebfonts.com/icon </metadata>
<g><g><g><path fill="#000000" d="M12.6,15.9c-3,1.8-3.5,5.2-1.2,7.8l1.4,1.6l14.4,0.1l14.4,0.1l12.6,63.2c6.9,34.8,13,64.2,13.4,65.6c2.9,9.4,10.4,17.8,19.7,22c7.1,3.2,2.7,3,70.7,3.2c33.9,0,62.3,0,63.1-0.1c1.9-0.3,3.9-2.3,4.3-4.1c0.4-2-0.9-4.6-2.9-5.5c-1.4-0.7-8.1-0.8-62.9-0.8c-67.6,0-63.9,0.1-69.9-3c-4-2.1-8.8-7-10.8-11c-1.4-2.8-3.9-13.1-3.9-15.9c0-0.9,2.3-0.9,71.6-1l71.6-0.1l2.8-1.1c7.4-2.8,13.3-8.8,15.7-15.9c0.7-2,2.3-13.2,5.1-35.7c2.3-18,4.1-33.5,4.1-34.4c0-1.2-0.4-2.2-1.4-3.3l-1.4-1.6l-93.5-0.1c-88.3-0.1-93.4-0.1-93.7-1c-0.1-0.4-1.3-6.5-2.7-13.3c-1.4-6.9-2.8-13.1-3.2-13.9c-1.3-2.6-2.5-2.7-20-2.7C15.2,15,14.1,15,12.6,15.9z"/><path fill="#000000" d="M92.2,190.2c-9.6,2.1-17.3,9.3-19.7,18.6c-0.9,3.5-0.9,9.7,0,13.1c3.7,13.9,18.5,22.2,32.3,18c15.5-4.8,22.8-22.9,14.9-36.9c-4.4-7.9-12.2-12.7-21.2-13C96.1,189.9,93.2,190,92.2,190.2z"/><path fill="#000000" d="M193.9,190.5c-9.1,2.2-16.8,9.9-18.9,19.1c-3.8,15.9,8.3,31.3,24.6,31.3c14.8,0.1,26-11.1,25.9-25.9C225.4,198.7,209.8,186.6,193.9,190.5z"/></g></g></g>
</svg>