<?xml version="1.0" encoding="utf-8"?>
<!-- Svg Vector Icons : http://www.onlinewebfonts.com/icon -->
<!DOCTYPE svg PUBLIC "-//W3C//DTD SVG 1.1//EN" "http://www.w3.org/Graphics/SVG/1.1/DTD/svg11.dtd">
<svg version="1.1" xmlns="http://www.w3.org/2000/svg" xmlns:xlink="http://www.w3.org/1999/xlink" x="0px" y="0px" viewBox="0 0 256 256" enable-background="new 0 0 256 256" xml:space="preserve">
<metadata> Svg Vector Icons : http://www.onlinewebfonts.com/icon </metadata>
<g><g><g><path fill="#000000" d="M12.6,15.9c-3,1.8-3.5,5.2-1.2,7.8l1.4,1.6l14.4,0.1l14.4,0.1l12.6,63.2c6.9,34.8,13,64.2,13.4,65.6c2.9,9.4,10.4,17.8,19.7,22c7.1,3.2,2.7,3,70.7,3.2c33.9,0,62.3,0,63.1-0.1c1.9-0.3,3.9-2.3,4.3-4.1c0.4-2-0.9-4.6-2.9-5.5c-1.4-0.7-8.1-0.8-62.9-0.8c-67.6,0-63.9,0.1-69.9-3c-4-2.1-8.8-7-10.8-11c-1.4-2.8-3.9-13.1-3.9-15.9c0-0.9,2.3-0.9,71.6-1l71.6-0.1l2.8-1.1c7.4-2.8,13.1-8.6,15.7-15.8c0.7-2.1,2.1-11.5,5.1-35.7c2.3-18.1,4.1-33.6,4.1-34.5c0-1.2-0.4-2.2-1.4-3.3l-1.4-1.6l-93.5-0.1c-88.3-0.1-93.4-0.1-93.7-1c-0.1-0.4-1.3-6.5-2.7-13.3c-1.4-6.9-2.8-13.1-3.2-13.9c-1.3-2.6-2.5-2.7-20-2.7C15.2,15,14.1,15,12.6,15.9z M234.9,57.4c0,3-7.3,58.8-8,60.7c-1.1,3.1-4.4,6.8-7.8,8.4l-2.7,1.3l-71.8,0.1l-71.8,0.1l-0.5-2.5c-0.3-1.4-3.5-17.6-7.2-35.9l-6.6-33.3h88.3h88.3V57.4z"/><path fill="#000000" d="M92.9,190.1c-5.9,1.1-12.5,5.2-15.9,9.8c-3.9,5.2-5.2,9.3-5.2,15.8c0,8.7,4.2,16.4,11.8,21.4c8,5.3,19.3,5.3,27.4,0c7.4-4.8,11.8-12.8,11.8-21.4c0-11.2-6.5-20.5-17.1-24.4C102.8,190.2,95.7,189.5,92.9,190.1z M103.3,201.3c2.9,1.3,6.6,4.9,7.9,7.8c1.7,3.8,1.6,9.2-0.2,13c-1.4,3-4,5.5-7.2,7.2c-1.7,0.9-2.8,1.1-6.6,1.1c-3.9,0-4.9-0.2-6.6-1.1c-3.2-1.7-5.7-4.2-7.2-7.2c-1.8-3.7-1.9-9.2-0.2-12.9c2-4.3,6.5-8,10.7-8.9C96.7,199.8,100.8,200.2,103.3,201.3z"/><path fill="#000000" d="M193.9,190.5c-9.1,2.2-16.8,9.9-18.9,19.1c-2,8.5,0.5,17.5,6.7,23.7c5.1,5.2,10.8,7.6,17.9,7.7c7.4,0,13.4-2.4,18.4-7.5c5.1-5,7.5-11.1,7.5-18.4c0-7.1-2.5-12.8-7.7-17.9C211.6,191,202.4,188.5,193.9,190.5z M206.4,201.6c9.7,4.4,11.8,17.6,4.1,24.8c-2.9,2.7-5.6,3.9-9.8,4.2c-4.7,0.2-8.2-1-11.3-4c-6.2-6-6.5-15.2-0.8-21.6C193,200.2,200.3,198.8,206.4,201.6z"/></g></g></g>
</svg>