<?xml version="1.0" encoding="utf-8"?>
<!-- Svg Vector Icons : http://www.onlinewebfonts.com/icon -->
<!DOCTYPE svg PUBLIC "-//W3C//DTD SVG 1.1//EN" "http://www.w3.org/Graphics/SVG/1.1/DTD/svg11.dtd">
<svg version="1.1" xmlns="http://www.w3.org/2000/svg" xmlns:xlink="http://www.w3.org/1999/xlink" x="0px" y="0px" viewBox="0 0 256 256" enable-background="new 0 0 256 256" xml:space="preserve">
<metadata> Svg Vector Icons : http://www.onlinewebfonts.com/icon </metadata>
<g><g><g><path fill="#000000" d="M61.4,16.3C46,19.3,27.5,33.6,19.3,49.1C13.7,59.3,10,75.7,10,88.9c0.1,44.6,31.8,89.2,100,140.3c8.7,6.5,16.8,11.9,18.1,11.9c2.5,0,28.6-19.3,45.4-33.6c16.1-13.6,40.1-39,48.7-51.4c21-30.6,28.3-61.1,21.1-89.2c-3.6-14.4-8.7-23.5-18.7-33.6c-10.1-10.3-20.8-15.7-34.7-17.6c-20.6-2.9-40.3,2.8-55.3,16l-6.8,6l-6.4-6C106.2,17.7,83.6,12,61.4,16.3z M99.3,33.9c6.5,3.3,17.8,13.3,25,22.2l3.7,4.7l3.7-4.7c7.6-9.4,18.1-18.7,24.7-22.1c9.2-4.4,30.3-5.6,41-1.9c9.4,3.2,21.8,14.7,26.9,25c18.9,38.7,1.3,83.9-51.4,131.4c-11.8,10.7-43.5,36-45,36c-0.4,0-7.5-5.3-15.7-11.7c-52.1-40.4-79.3-74.6-86.2-108c-2.8-13.1-2.8-18.6-0.3-30.6c2.9-13.6,8.5-23.9,17.6-32.4C54.3,32,59.9,30,78,30.5C90.1,30.7,93.7,31.3,99.3,33.9z"/></g></g></g>
</svg>