<?xml version="1.0" encoding="utf-8"?>
<!-- Svg Vector Icons : http://www.onlinewebfonts.com/icon -->
<!DOCTYPE svg PUBLIC "-//W3C//DTD SVG 1.1//EN" "http://www.w3.org/Graphics/SVG/1.1/DTD/svg11.dtd">
<svg version="1.1" xmlns="http://www.w3.org/2000/svg" xmlns:xlink="http://www.w3.org/1999/xlink" x="0px" y="0px" viewBox="0 0 256 256" enable-background="new 0 0 256 256" xml:space="preserve">
<metadata> Svg Vector Icons : http://www.onlinewebfonts.com/icon </metadata>
<g><g><path fill="#000000" d="M128,10C62.8,10,10,62.8,10,128c0,34.3,14.7,65.3,38.1,86.8l0,0l0,0c21,19.4,49.1,31.2,79.9,31.2c30.8,0,58.9-11.8,79.9-31.2l0,0l0,0c23.4-21.6,38.1-52.5,38.1-86.8C246,62.8,193.2,10,128,10z M193.4,209.1c-7.5,6.1-15.8,11.1-24.8,14.9c-12.8,5.4-26.5,8.2-40.5,8.2c-14.1,0-27.7-2.7-40.5-8.2c-9-3.8-17.3-8.8-24.8-14.9l0,0c5-31.8,32.5-55.8,65.4-55.8S188.4,177.3,193.4,209.1L193.4,209.1z M101.6,128.1c-7.1-7.1-10.9-16.4-10.9-26.4c0-10,3.9-19.3,10.9-26.4c7.1-7.1,16.4-10.9,26.4-10.9c10,0,19.3,3.9,26.4,10.9c7.1,7.1,10.9,16.4,10.9,26.4c0,10-3.9,19.3-10.9,26.4c-7.1,7.1-16.4,10.9-26.4,10.9C118,139.1,108.7,135.2,101.6,128.1z M205.1,198c-6.8-24.7-25.2-44.6-48.9-53.5c13.8-9.2,23-24.9,23-42.7c0-28.3-22.9-51.2-51.2-51.2c-28.3,0-51.2,22.9-51.2,51.2c0,17.8,9.2,33.6,23,42.7c-23.7,8.9-42.1,28.8-48.9,53.5c-7.9-8.7-14.2-18.6-18.8-29.4c-5.5-12.8-8.2-26.5-8.2-40.5c0-14.1,2.7-27.7,8.2-40.5c5.2-12.4,12.8-23.5,22.3-33.1c9.6-9.6,20.7-17.1,33.1-22.3c12.8-5.4,26.4-8.2,40.5-8.2c14.1,0,27.7,2.7,40.5,8.2c12.4,5.2,23.5,12.8,33.1,22.3c9.6,9.6,17.1,20.7,22.3,33.1c5.4,12.8,8.2,26.5,8.2,40.5c0,14.1-2.7,27.7-8.2,40.5C219.4,179.4,213,189.2,205.1,198z"/></g></g>
</svg>