<?xml version="1.0" encoding="utf-8"?>
<!-- Svg Vector Icons : http://www.onlinewebfonts.com/icon -->
<!DOCTYPE svg PUBLIC "-//W3C//DTD SVG 1.1//EN" "http://www.w3.org/Graphics/SVG/1.1/DTD/svg11.dtd">
<svg version="1.1" xmlns="http://www.w3.org/2000/svg" xmlns:xlink="http://www.w3.org/1999/xlink" x="0px" y="0px" viewBox="0 0 256 256" enable-background="new 0 0 256 256" xml:space="preserve">
<metadata> Svg Vector Icons : http://www.onlinewebfonts.com/icon </metadata>
<g><g><path fill="#000000" d="M238.4,112.1l-89.5-93c-5.6-5.8-13-9-21-9c-8,0-15.4,3.2-21,9l-89.5,93c-9.2,9.6-8,17.9-6.5,21.4c1.1,2.5,4.8,9.2,15.3,9.2h13.1v71.6c0,16.3,11.7,31.5,28.3,31.5h15.1h23V229v-58.9c0-8.1-1.2-12.6,7.1-12.6H128h15c8.3,0,7.1,4.5,7.1,12.6v59v16.8h23h15c16.6,0,28.3-15.3,28.3-31.5v-71.6h13.1c10.6,0,14.3-6.8,15.3-9.2C246.5,130,247.7,121.7,238.4,112.1L238.4,112.1z M229.6,128h-11.3h-7.5h-9.1v86.3c0,8.1-5.3,16.8-13.5,16.8h-23.3v-61c0-16.3-5.2-27.4-21.8-27.4H128h-15.1c-16.6,0-21.8,11.1-21.8,27.4v61H67.8c-8.3,0-13.5-8.7-13.5-16.8V128h-9.1h-7.5H26.4c-0.3,0-0.5-1-0.7-1c0.5-0.9,1.4-3.2,2.8-4.7l89.5-93c2.7-2.8,6.4-4.5,10.1-4.5c3.7,0,7.2,1.7,9.9,4.5l89.5,93c1.5,1.5,2.3,3.8,2.9,4.7C230.1,127,229.9,128,229.6,128L229.6,128z"/></g></g>
</svg>